<svg xmlns="http://www.w3.org/2000/svg" viewBox="0 0 512 512">
  <rect width="512" height="512" fill="#0066cc"/>
  <path fill="#fff" d="M150 100h200c20 0 36 16 36 36v100h-20v-100c0-9-7-16-16-16H150c-9 0-16 7-16 16v240c0 9 7 16 16 16h80v20h-80c-20 0-36-16-36-36V136c0-20 16-36 36-36z"/>
  <circle cx="350" cy="320" r="80" fill="none" stroke="#fff" stroke-width="20"/>
  <path fill="#fff" d="M410 370l50 50-14 14-50-50z"/>
  <path fill="#fff" stroke="#fff" stroke-width="4" d="M320 290l20 20 40-40"/>
</svg>
